<mxfile host="app.diagrams.net" modified="2022-10-09T03:42:29.800Z" agent="5.0 (Macintosh; Intel Mac OS X 10_15_7) AppleWebKit/537.36 (KHTML, like Gecko) Chrome/105.0.0.0 Safari/537.36" etag="SYvuTaowbONAsLoIOoY5" version="20.4.0" type="github">
  <diagram id="hRB9j23B_FBuS8U03Qc3" name="Page-1">
    <mxGraphModel dx="1018" dy="611" grid="1" gridSize="10" guides="1" tooltips="1" connect="1" arrows="1" fold="1" page="1" pageScale="1" pageWidth="850" pageHeight="1100" math="0" shadow="0">
      <root>
        <mxCell id="0" />
        <mxCell id="1" parent="0" />
        <mxCell id="lIIxyb5L-zMubOliOcYj-1" value="客户端" style="text;html=1;strokeColor=none;fillColor=none;align=center;verticalAlign=middle;whiteSpace=wrap;rounded=0;fontSize=32;fontFamily=Comic Sans MS;" vertex="1" parent="1">
          <mxGeometry x="80" y="80" width="120" height="30" as="geometry" />
        </mxCell>
        <mxCell id="lIIxyb5L-zMubOliOcYj-2" value="服务端" style="text;html=1;strokeColor=none;fillColor=none;align=center;verticalAlign=middle;whiteSpace=wrap;rounded=0;fontSize=32;fontFamily=Comic Sans MS;" vertex="1" parent="1">
          <mxGeometry x="530" y="80" width="100" height="30" as="geometry" />
        </mxCell>
        <mxCell id="lIIxyb5L-zMubOliOcYj-3" value="CLOSE" style="rounded=0;whiteSpace=wrap;html=1;fontSize=16;comic=1;fillColor=#f5f5f5;fontColor=#333333;strokeColor=#666666;fontFamily=Comic Sans MS;" vertex="1" parent="1">
          <mxGeometry x="80" y="120" width="120" height="60" as="geometry" />
        </mxCell>
        <mxCell id="lIIxyb5L-zMubOliOcYj-4" value="CLOSE" style="rounded=0;whiteSpace=wrap;html=1;fontSize=16;comic=1;fillColor=#f5f5f5;fontColor=#333333;strokeColor=#666666;fontFamily=Comic Sans MS;" vertex="1" parent="1">
          <mxGeometry x="520" y="120" width="120" height="60" as="geometry" />
        </mxCell>
        <mxCell id="lIIxyb5L-zMubOliOcYj-5" value="SYS_SENT" style="rounded=0;whiteSpace=wrap;html=1;comic=1;fontSize=16;fillColor=#fff2cc;strokeColor=#d6b656;fontFamily=Comic Sans MS;" vertex="1" parent="1">
          <mxGeometry x="80" y="180" width="120" height="260" as="geometry" />
        </mxCell>
        <mxCell id="lIIxyb5L-zMubOliOcYj-6" value="LISTEN" style="rounded=0;whiteSpace=wrap;html=1;fontSize=16;comic=1;fillColor=#dae8fc;strokeColor=#6c8ebf;fontFamily=Comic Sans MS;" vertex="1" parent="1">
          <mxGeometry x="520" y="180" width="120" height="60" as="geometry" />
        </mxCell>
        <mxCell id="lIIxyb5L-zMubOliOcYj-7" value="SYS_RCVD" style="rounded=0;whiteSpace=wrap;html=1;comic=1;fontSize=16;fillColor=#fff2cc;strokeColor=#d6b656;fontFamily=Comic Sans MS;" vertex="1" parent="1">
          <mxGeometry x="520" y="240" width="120" height="260" as="geometry" />
        </mxCell>
        <mxCell id="lIIxyb5L-zMubOliOcYj-8" value="ESTABLISHED" style="rounded=0;whiteSpace=wrap;html=1;fontSize=16;comic=1;fillColor=#d5e8d4;strokeColor=#82b366;fontFamily=Comic Sans MS;" vertex="1" parent="1">
          <mxGeometry x="520" y="500" width="120" height="60" as="geometry" />
        </mxCell>
        <mxCell id="lIIxyb5L-zMubOliOcYj-9" value="ESTABLISHED" style="rounded=0;whiteSpace=wrap;html=1;comic=1;fontFamily=Comic Sans MS;fontSize=16;fillColor=#d5e8d4;strokeColor=#82b366;" vertex="1" parent="1">
          <mxGeometry x="80" y="440" width="120" height="120" as="geometry" />
        </mxCell>
        <mxCell id="lIIxyb5L-zMubOliOcYj-10" value="SYN&lt;br&gt;Seq NUM = client_isn" style="endArrow=classic;html=1;rounded=0;fontFamily=Comic Sans MS;fontSize=16;exitX=1;exitY=0;exitDx=0;exitDy=0;entryX=0;entryY=0;entryDx=0;entryDy=0;fontColor=#2187FC;" edge="1" parent="1" source="lIIxyb5L-zMubOliOcYj-5" target="lIIxyb5L-zMubOliOcYj-7">
          <mxGeometry width="50" height="50" relative="1" as="geometry">
            <mxPoint x="390" y="340" as="sourcePoint" />
            <mxPoint x="440" y="290" as="targetPoint" />
          </mxGeometry>
        </mxCell>
        <mxCell id="lIIxyb5L-zMubOliOcYj-11" value="" style="endArrow=classic;html=1;rounded=0;fontFamily=Comic Sans MS;fontSize=16;fontColor=#2187FC;entryX=1;entryY=0;entryDx=0;entryDy=0;" edge="1" parent="1" target="lIIxyb5L-zMubOliOcYj-9">
          <mxGeometry width="50" height="50" relative="1" as="geometry">
            <mxPoint x="520" y="240" as="sourcePoint" />
            <mxPoint x="440" y="320" as="targetPoint" />
          </mxGeometry>
        </mxCell>
        <mxCell id="lIIxyb5L-zMubOliOcYj-12" value="SYN + ACK&lt;br&gt;Ack Num = client_isn + 1&lt;br&gt;Seq Num = server_isn" style="edgeLabel;html=1;align=center;verticalAlign=middle;resizable=0;points=[];fontSize=16;fontFamily=Comic Sans MS;fontColor=#FFB570;" vertex="1" connectable="0" parent="lIIxyb5L-zMubOliOcYj-11">
          <mxGeometry x="0.0503" y="-2" relative="1" as="geometry">
            <mxPoint as="offset" />
          </mxGeometry>
        </mxCell>
        <mxCell id="lIIxyb5L-zMubOliOcYj-13" value="ACK&lt;br&gt;Ack Num = server_isn + 1" style="endArrow=classic;html=1;rounded=0;fontFamily=Comic Sans MS;fontSize=16;fontColor=#97D077;entryX=0;entryY=0;entryDx=0;entryDy=0;" edge="1" parent="1" target="lIIxyb5L-zMubOliOcYj-8">
          <mxGeometry width="50" height="50" relative="1" as="geometry">
            <mxPoint x="200" y="440" as="sourcePoint" />
            <mxPoint x="510" y="510" as="targetPoint" />
          </mxGeometry>
        </mxCell>
      </root>
    </mxGraphModel>
  </diagram>
</mxfile>
